<?xml version="1.0" encoding="utf-8"?>

<!-- Uploaded to: SVG Repo, www.svgrepo.com, Generator: SVG Repo Mixer Tools -->
<svg fill="#000000" height="800px" width="800px" version="1.1" id="Icons" xmlns="http://www.w3.org/2000/svg" xmlns:xlink="http://www.w3.org/1999/xlink" 
	 viewBox="0 0 32 32" xml:space="preserve">
<path d="M29,16.8c0-0.1,0-0.1,0-0.2l-4-12C24.8,4.3,24.4,4,24,4H8C7.6,4,7.2,4.3,7.1,4.7l-4,12c0,0.1,0,0.1,0,0.2c0,0.1,0,0.1,0,0.2
	v10c0,0.6,0.4,1,1,1h24c0.6,0,1-0.4,1-1V17C29,16.9,29,16.9,29,16.8z M8.7,6h14.6l3.3,10H20c-0.6,0-1,0.4-1,1c0,1.7-1.3,3-3,3
	s-3-1.3-3-3c0-0.6-0.4-1-1-1H5.4L8.7,6z"/>
</svg>