<svg width="24" height="24" viewBox="0 0 24 24" fill="none" xmlns="http://www.w3.org/2000/svg">
    <path fill-rule="evenodd" clip-rule="evenodd" d="M13.788 3.804c-.456-1.872-3.12-1.872-3.576 0A1.838 1.838 0 0 1 7.47 4.94c-1.647-1.003-3.53.881-2.527 2.528a1.84 1.84 0 0 1-1.137 2.744c-1.873.455-1.873 3.12 0 3.574a1.838 1.838 0 0 1 1.137 2.744c-1.004 1.646.88 3.53 2.527 2.527a1.839 1.839 0 0 1 2.744 1.137c.455 1.873 3.12 1.873 3.574 0a1.84 1.84 0 0 1 2.744-1.137c1.647 1.003 3.53-.88 2.527-2.527a1.839 1.839 0 0 1 1.137-2.744c1.873-.455 1.873-3.12 0-3.574a1.838 1.838 0 0 1-1.137-2.744c1.004-1.647-.88-3.53-2.527-2.528a1.838 1.838 0 0 1-2.744-1.136l.001-.001zM12 15.6a3.6 3.6 0 1 0 0-7.2 3.6 3.6 0 0 0 0 7.2z" fill="#000"/>
</svg>
