<svg width="24" height="24" viewBox="0 0 24 24" fill="none" xmlns="http://www.w3.org/2000/svg">
<path fill-rule="evenodd" clip-rule="evenodd" d="M21.6004 11.9999C21.6004 14.546 20.589 16.9878 18.7886 18.7881C16.9883 20.5885 14.5465 21.5999 12.0004 21.5999C9.45431 21.5999 7.01252 20.5885 5.21217 18.7881C3.41182 16.9878 2.40039 14.546 2.40039 11.9999C2.40039 9.45382 3.41182 7.01203 5.21217 5.21168C7.01252 3.41133 9.45431 2.3999 12.0004 2.3999C14.5465 2.3999 16.9883 3.41133 18.7886 5.21168C20.589 7.01203 21.6004 9.45382 21.6004 11.9999ZM12.0004 8.3999C11.7895 8.3997 11.5824 8.45505 11.3997 8.56038C11.2171 8.66571 11.0654 8.81731 10.96 8.9999C10.8839 9.14135 10.7801 9.26608 10.6549 9.36669C10.5297 9.46731 10.3855 9.54175 10.231 9.58562C10.0765 9.62949 9.91472 9.64189 9.75532 9.62209C9.59591 9.60228 9.4421 9.55067 9.30301 9.47032C9.16392 9.38996 9.04238 9.2825 8.94559 9.1543C8.8488 9.02611 8.77873 8.87978 8.73955 8.724C8.70036 8.56822 8.69284 8.40616 8.71745 8.24743C8.74205 8.08869 8.79828 7.93651 8.88279 7.7999C9.27905 7.11364 9.89068 6.5773 10.6228 6.27406C11.355 5.97082 12.1667 5.91763 12.9322 6.12273C13.6976 6.32784 14.374 6.77978 14.8564 7.40846C15.3388 8.03715 15.6004 8.80745 15.6004 9.5999C15.6006 10.3446 15.3699 11.0711 14.9401 11.6793C14.5103 12.2875 13.9025 12.7475 13.2004 12.9959V13.1999C13.2004 13.5182 13.074 13.8234 12.8489 14.0484C12.6239 14.2735 12.3187 14.3999 12.0004 14.3999C11.6821 14.3999 11.3769 14.2735 11.1519 14.0484C10.9268 13.8234 10.8004 13.5182 10.8004 13.1999V11.9999C10.8004 11.6816 10.9268 11.3764 11.1519 11.1514C11.3769 10.9263 11.6821 10.7999 12.0004 10.7999C12.3187 10.7999 12.6239 10.6735 12.8489 10.4484C13.074 10.2234 13.2004 9.91816 13.2004 9.5999C13.2004 9.28164 13.074 8.97642 12.8489 8.75137C12.6239 8.52633 12.3187 8.3999 12.0004 8.3999ZM12.0004 17.9999C12.3187 17.9999 12.6239 17.8735 12.8489 17.6484C13.074 17.4234 13.2004 17.1182 13.2004 16.7999C13.2004 16.4816 13.074 16.1764 12.8489 15.9514C12.6239 15.7263 12.3187 15.5999 12.0004 15.5999C11.6821 15.5999 11.3769 15.7263 11.1519 15.9514C10.9268 16.1764 10.8004 16.4816 10.8004 16.7999C10.8004 17.1182 10.9268 17.4234 11.1519 17.6484C11.3769 17.8735 11.6821 17.9999 12.0004 17.9999Z" fill="black"/>
</svg>
